<?xml version="1.0" standalone="no"?>
<!DOCTYPE svg PUBLIC "-//W3C//DTD SVG 20010904//EN"
 "http://www.w3.org/TR/2001/REC-SVG-20010904/DTD/svg10.dtd">
<svg version="1.0" xmlns="http://www.w3.org/2000/svg"
 width="1280.000000pt" height="1280.000000pt" viewBox="0 0 1280.000000 1280.000000"
 preserveAspectRatio="xMidYMid meet">

<g transform="translate(0.000000,1280.000000) scale(0.100000,-0.100000)"
fill="#000000" stroke="none">
<path d="M11092 12708 c-7 -7 -12 -19 -12 -28 0 -24 -21 -40 -51 -40 -21 0
-31 -7 -41 -27 -11 -23 -20 -28 -53 -29 -36 0 -44 -5 -75 -47 -56 -75 -93 -63
-103 32 -8 71 -16 78 -74 72 -47 -6 -48 -7 -67 -58 -10 -29 -23 -53 -29 -53
-6 0 -23 12 -39 27 -35 33 -79 35 -112 4 -34 -32 -68 -25 -82 17 -15 47 -26
54 -89 56 -51 1 -59 -2 -77 -27 l-20 -27 -29 24 c-36 31 -51 26 -68 -19 -15
-43 -42 -46 -77 -8 -24 26 -27 27 -38 10 -19 -24 -25 -22 -42 18 -18 44 -30
44 -48 0 -20 -47 -65 -105 -82 -105 -8 0 -23 5 -34 12 -16 10 -22 8 -40 -15
-12 -15 -31 -27 -43 -27 -11 0 -34 -12 -50 -27 -28 -27 -29 -28 -43 -9 -8 11
-14 34 -14 52 0 81 -27 84 -75 9 -19 -30 -41 -55 -49 -55 -8 0 -26 11 -40 25
-16 16 -31 23 -43 18 -40 -14 -45 -25 -39 -84 5 -45 3 -59 -10 -70 -28 -23
-64 7 -85 71 -22 67 -38 79 -92 73 -50 -6 -69 -26 -60 -62 10 -42 7 -82 -7
-91 -21 -13 -47 6 -60 44 -6 19 -19 36 -30 39 -11 3 -30 29 -46 63 -15 33 -30
66 -34 74 -4 8 -19 16 -33 18 -19 2 -29 -4 -43 -27 -10 -17 -26 -34 -36 -37
-9 -3 -29 -27 -44 -55 -32 -57 -49 -62 -58 -16 -7 36 -63 117 -81 117 -7 0
-22 -11 -35 -25 -13 -14 -28 -25 -34 -25 -6 0 -27 18 -47 40 -37 40 -68 50
-98 31 -22 -14 -49 5 -68 45 -22 45 -51 42 -78 -8 -25 -48 -50 -48 -76 -3 -12
20 -29 35 -39 35 -17 0 -54 -37 -62 -62 -3 -7 -15 -7 -40 2 -31 11 -41 11 -69
-3 -23 -10 -39 -13 -50 -6 -14 7 -22 4 -33 -13 l-16 -22 -25 24 -25 24 -40
-39 c-33 -32 -47 -39 -82 -39 -36 -1 -45 -6 -64 -34 -12 -18 -25 -51 -29 -75
-12 -70 -39 -86 -82 -45 -13 12 -26 18 -30 14 -5 -4 -9 -600 -10 -1324 -1
-1142 -8 -1876 -18 -2099 -3 -67 1 -72 47 -54 13 5 30 22 38 37 23 46 41 64
67 64 16 0 29 10 41 30 9 16 20 30 24 30 4 0 23 14 41 30 39 34 83 39 140 15
23 -10 36 -22 39 -39 6 -28 -16 -66 -36 -66 -8 0 -19 -6 -25 -14 -9 -11 -8
-18 4 -30 21 -20 20 -20 44 5 11 12 17 28 14 35 -8 21 16 46 35 35 8 -5 23 -6
33 -4 32 9 27 -38 -9 -86 -49 -66 -141 -151 -161 -151 -10 0 -26 11 -35 25
-21 32 -30 31 -45 -2 -10 -22 -10 -28 3 -35 9 -5 16 -16 16 -24 0 -13 -2 -13
-16 1 -12 11 -19 13 -24 5 -5 -8 -11 -6 -20 5 -7 8 -19 15 -26 15 -8 0 -14 9
-14 20 0 11 -5 20 -11 20 -7 0 -9 -10 -7 -25 3 -13 2 -22 -2 -20 -4 3 -15 -4
-25 -15 -10 -11 -26 -20 -37 -20 -10 0 -18 -5 -18 -11 0 -6 -13 -24 -29 -40
-32 -31 -34 -58 -6 -89 11 -12 15 -39 15 -98 0 -48 4 -82 10 -82 19 0 10 -42
-15 -72 -22 -26 -31 -58 -26 -96 1 -8 -5 -24 -13 -37 -9 -14 -16 -32 -16 -41
0 -9 -11 -25 -25 -36 l-26 -20 7 -127 c4 -72 12 -129 18 -133 9 -6 -50 -38
-70 -38 -9 0 -64 -61 -64 -71 0 -5 -4 -9 -10 -9 -5 0 -10 -8 -10 -19 0 -27
-50 -47 -121 -50 -111 -4 -99 -96 -99 753 0 489 4 762 11 801 8 43 7 80 -1
142 -14 96 -5 122 26 76 11 -16 21 -53 24 -87 4 -42 10 -62 23 -70 14 -9 20
-7 28 7 6 9 17 17 24 17 11 0 15 13 15 48 0 44 -5 54 -45 98 -25 27 -48 59
-51 72 -3 12 -12 22 -19 22 -39 0 -39 -25 -39 1428 -1 768 -4 1404 -9 1412 -4
8 -28 28 -53 44 l-45 29 -23 -22 c-40 -38 -76 -25 -90 32 -5 20 -12 27 -31 27
-26 0 -35 10 -50 55 -8 23 -16 30 -35 30 -19 0 -27 -7 -35 -30 -18 -53 -21
-55 -92 -50 -80 6 -93 17 -135 104 -46 97 -71 107 -84 35 -10 -50 -42 -83 -52
-54 -6 18 -91 100 -104 100 -5 0 -14 -13 -19 -30 -6 -16 -14 -30 -19 -30 -4 0
-15 20 -24 45 -10 25 -21 45 -26 45 -5 0 -15 3 -23 6 -28 10 -47 -23 -40 -73
7 -52 -9 -73 -57 -73 -35 0 -50 17 -50 56 0 18 -5 45 -10 59 -8 21 -16 26 -37
23 -25 -3 -29 -9 -41 -63 -7 -33 -22 -69 -32 -79 -18 -19 -20 -19 -38 -3 -10
9 -21 17 -24 17 -7 0 -23 -42 -38 -102 -14 -53 -23 -63 -61 -73 -21 -5 -34 0
-64 26 -42 37 -62 33 -78 -15 -16 -49 6 -97 55 -124 50 -26 66 -27 88 -7 14
13 19 13 36 1 18 -14 19 -34 19 -663 0 -611 -5 -758 -25 -708 -7 16 -9 13 -9
-16 -1 -19 -5 -39 -11 -45 -11 -11 -19 -444 -7 -444 4 0 7 -18 7 -40 0 -23 -5
-40 -11 -40 -17 0 -5 -95 14 -115 9 -8 20 -14 24 -13 16 6 21 -99 27 -592 3
-278 9 -720 12 -982 6 -487 -2 -955 -17 -979 -7 -11 -75 -14 -351 -15 -2056
-5 -2926 -5 -3153 0 -148 3 -353 2 -455 -2 -102 -4 -252 -4 -335 0 -82 4 -207
8 -276 8 -135 0 -142 2 -154 53 -4 15 -11 30 -16 33 -12 7 -60 -20 -88 -50
-23 -24 -30 -26 -115 -26 -50 0 -147 5 -216 11 -69 6 -168 12 -220 14 -52 3
-115 6 -140 9 -25 2 -50 0 -56 -5 -8 -6 -14 -4 -18 7 -8 21 3 102 15 110 13 8
11 35 -6 68 -8 15 -15 35 -15 42 0 8 -4 14 -10 14 -6 0 -10 -37 -10 -90 0 -79
-3 -95 -25 -128 -47 -72 -51 -165 -10 -229 13 -20 16 -36 10 -72 -9 -56 -9
-78 -1 -354 5 -192 4 -221 -11 -250 -9 -18 -18 -65 -21 -107 -4 -63 -1 -84 17
-124 16 -35 21 -63 20 -109 -6 -171 -4 -203 20 -271 25 -75 24 -135 -3 -165
-25 -28 -20 -118 10 -203 41 -112 44 -133 33 -278 -5 -74 -10 -157 -10 -185
-1 -63 17 -215 33 -279 l13 -49 102 -1 c84 -2 106 -5 123 -21 17 -15 24 -16
43 -7 12 7 31 12 42 12 11 0 54 5 95 10 311 39 569 48 1746 56 662 5 877 4
927 -6 55 -10 73 -10 119 4 39 11 64 13 86 7 17 -5 502 -9 1114 -8 1075 2
1083 2 1118 -19 26 -15 36 -28 40 -55 3 -18 3 -986 0 -2149 -5 -2027 -3 -2551
11 -2565 4 -3 30 17 58 45 29 27 57 50 62 50 11 0 24 -30 36 -85 l8 -40 60 3
c33 2 65 8 71 13 7 5 17 29 23 53 11 47 45 96 65 96 7 0 31 -20 54 -45 55 -61
85 -61 145 0 50 50 83 57 112 25 16 -18 17 -25 6 -61 -14 -47 -6 -63 40 -74
19 -5 34 0 56 19 17 14 36 26 41 26 19 0 42 -43 42 -77 0 -38 16 -83 29 -83 5
0 28 16 52 35 23 20 49 35 58 33 9 -2 29 -28 44 -58 15 -30 32 -56 37 -58 5
-2 16 10 24 25 15 30 53 53 86 53 10 0 28 12 39 27 24 29 71 174 71 216 0 16
7 30 15 34 9 3 15 13 14 22 -5 56 3 201 11 201 6 0 10 -7 10 -15 0 -10 10 -15
34 -15 32 0 34 -2 38 -41 2 -23 -1 -56 -8 -75 -6 -18 -9 -36 -6 -39 3 -3 0 -5
-6 -5 -7 0 -12 -6 -12 -14 0 -7 -7 -19 -15 -26 -8 -7 -15 -25 -15 -41 0 -24 4
-29 23 -29 27 0 57 32 57 61 0 11 11 31 25 45 14 14 25 29 25 34 0 6 13 10 30
10 26 0 31 -5 40 -41 l11 -40 42 6 c39 6 43 4 60 -23 9 -17 17 -36 17 -44 0
-24 59 -138 75 -144 9 -4 31 2 50 12 32 17 35 17 53 1 23 -21 56 -16 96 17 28
22 29 25 27 110 l-2 87 28 -3 c32 -3 40 -26 42 -115 1 -62 16 -75 45 -39 l21
28 29 -32 c24 -28 33 -31 62 -27 18 3 36 1 39 -4 4 -5 15 -9 26 -9 23 0 26 35
5 75 -16 30 -13 43 21 97 21 35 65 59 80 45 3 -4 18 0 34 8 44 23 67 19 84
-16 16 -29 17 -30 35 -14 24 22 47 13 56 -20 4 -17 13 -25 29 -25 14 0 33 -13
49 -35 33 -43 89 -68 136 -61 86 13 83 13 102 -26 22 -46 49 -49 77 -9 12 16
37 35 57 41 23 8 43 25 60 51 13 21 27 39 30 39 23 0 44 -27 54 -70 7 -29 20
-55 30 -60 36 -19 81 -11 117 20 54 47 142 41 170 -13 l16 -31 18 25 c31 40
52 59 65 59 14 0 32 -53 36 -105 2 -21 7 -29 18 -26 8 3 45 9 82 15 64 9 69 8
92 -13 33 -31 62 -15 76 42 17 64 17 65 44 82 34 23 58 13 108 -46 44 -52 69
-60 101 -32 18 17 21 16 58 -5 45 -26 52 -24 68 16 7 17 27 36 49 46 35 17 37
17 49 -1 25 -37 34 -43 65 -43 19 0 41 9 55 22 l23 22 28 -27 c37 -36 57 -23
47 31 -8 48 1 82 20 82 21 0 45 -41 45 -76 0 -63 30 -88 50 -41 5 12 22 40 38
62 23 33 37 42 82 53 50 13 56 12 65 -3 44 -75 71 -82 111 -30 32 42 42 44 50
8 3 -16 10 -38 15 -51 l9 -23 26 30 c37 44 57 40 72 -14 15 -56 48 -76 88 -54
15 7 31 24 37 36 14 32 49 29 99 -7 57 -42 83 -39 107 9 30 57 48 59 71 8 25
-57 27 -58 67 -42 20 8 46 15 58 15 32 0 41 15 58 97 8 39 19 77 23 85 5 7 9
17 9 22 0 5 16 15 35 21 29 10 35 17 35 40 0 19 -6 29 -17 31 -10 1 -18 -2
-18 -7 0 -5 -9 -9 -20 -9 -16 0 -20 7 -20 38 0 26 6 42 19 52 11 7 26 33 33
57 17 59 50 58 80 -2 15 -31 14 -65 -3 -65 -17 0 -9 -22 21 -60 17 -22 34 -60
41 -91 6 -30 13 -56 15 -58 2 -2 13 4 24 14 19 17 22 17 66 0 27 -10 49 -26
54 -39 7 -19 9 -19 14 -3 14 41 14 46 0 58 -10 8 -12 15 -4 23 16 16 12 25 -9
19 -24 -6 -55 25 -44 46 4 9 6 51 4 94 -3 92 6 97 64 37 21 -22 44 -40 50 -40
6 0 24 -20 40 -46 16 -25 39 -57 52 -72 13 -15 23 -30 23 -34 0 -5 6 -8 13 -8
29 0 100 -60 112 -94 11 -32 10 -39 -6 -61 -19 -24 -19 -24 2 -36 26 -13 39 1
39 42 0 14 11 39 25 55 13 15 30 41 36 56 9 21 18 28 39 28 26 0 28 3 35 56 7
59 33 98 63 92 9 -2 27 -25 39 -51 13 -26 29 -47 36 -47 27 0 120 40 133 57
16 22 17 72 4 179 -9 75 -8 85 16 154 29 84 27 116 -10 165 -25 32 -29 49 -27
98 1 23 5 27 19 23 17 -6 20 4 32 91 12 94 12 100 -9 138 -11 22 -21 52 -21
66 0 15 -7 44 -16 65 -13 29 -17 71 -18 164 0 105 -3 127 -18 142 -21 21 -23
64 -6 105 6 15 14 81 17 145 6 113 7 118 36 148 29 31 30 35 33 143 7 229 5
261 -18 352 -24 100 -27 140 -10 160 17 21 50 193 43 229 -3 17 -19 60 -36 96
-40 87 -44 127 -18 177 35 70 37 115 8 181 -35 77 -48 241 -24 301 16 39 16
41 -9 71 l-26 30 7 159 c5 113 4 160 -4 165 -7 5 -11 -3 -11 -24 0 -27 -6 -33
-54 -54 l-55 -24 -364 5 c-240 3 -405 1 -484 -6 -202 -20 -876 -28 -931 -12
-22 6 -42 7 -59 0 -14 -5 -146 -9 -305 -8 -335 2 -328 4 -278 -87 23 -43 82
-109 212 -236 99 -98 184 -178 189 -178 5 0 9 -6 9 -12 0 -7 36 -50 80 -96 44
-46 80 -87 80 -91 0 -5 17 -21 38 -37 20 -15 40 -33 44 -38 15 -23 135 -146
142 -146 5 0 27 -21 49 -47 23 -26 76 -82 117 -123 41 -42 93 -98 115 -124 22
-26 60 -61 84 -78 l44 -31 -7 -84 c-7 -99 0 -117 72 -184 61 -57 95 -68 116
-37 9 12 16 30 16 39 0 29 24 40 48 23 12 -8 22 -20 22 -25 0 -6 15 -25 33
-43 17 -19 68 -73 112 -121 118 -129 144 -155 155 -155 6 0 10 -13 10 -29 0
-24 3 -28 23 -24 20 4 27 -2 41 -32 10 -20 25 -39 34 -42 25 -10 41 -35 38
-58 -2 -14 -12 -21 -34 -23 -26 -3 -32 -8 -32 -26 0 -16 7 -26 22 -29 26 -7
58 8 58 28 0 23 47 30 75 11 14 -9 25 -23 25 -30 0 -15 91 -116 104 -116 5 0
40 -33 80 -73 39 -41 81 -79 94 -86 12 -6 34 -30 47 -51 14 -22 32 -40 40 -40
27 0 116 -103 147 -170 16 -36 39 -72 50 -81 16 -12 17 -20 9 -40 -5 -13 -12
-33 -16 -43 -5 -17 -8 -18 -20 -5 -8 8 -21 32 -28 54 -16 47 -36 51 -55 12
-11 -22 -18 -26 -37 -21 -20 5 -27 1 -35 -21 -12 -32 0 -52 33 -57 23 -3 29
-22 15 -50 -13 -27 -34 -22 -63 17 -15 19 -36 37 -46 40 -11 4 -31 24 -45 46
-13 22 -36 44 -49 49 -13 5 -31 23 -40 40 -9 17 -27 35 -40 40 -13 5 -34 28
-45 50 -12 23 -46 60 -80 86 -32 26 -70 63 -84 84 -29 45 -94 108 -118 116
-10 3 -21 16 -24 28 -3 13 -17 29 -31 37 -24 13 -53 56 -53 79 0 18 -42 70
-52 64 -5 -3 -12 3 -15 15 -3 12 -12 21 -21 21 -17 0 -152 129 -152 147 0 6
-18 14 -40 18 -24 4 -44 14 -50 26 -6 10 -26 25 -45 33 -22 10 -39 26 -48 48
-8 18 -26 44 -41 57 -14 14 -26 29 -26 35 0 20 -16 36 -41 41 -13 2 -30 14
-38 25 -7 11 -20 20 -27 20 -15 0 -92 76 -219 215 -44 48 -116 124 -160 169
-101 103 -139 145 -153 172 -6 12 -23 25 -38 28 -15 4 -47 24 -71 44 -35 30
-203 194 -260 254 -7 7 -23 24 -35 37 -13 13 -52 51 -87 85 -36 33 -87 85
-115 115 -28 30 -64 66 -80 80 -47 42 -176 172 -246 250 -113 125 -235 247
-256 255 -10 5 -63 11 -117 15 -68 5 -102 12 -108 22 -5 8 -9 38 -9 67 0 45
-3 52 -20 52 -24 0 -40 -28 -40 -73 0 -21 -7 -41 -20 -52 -17 -16 -27 -16
-102 -6 -46 7 -91 14 -100 17 -21 6 -25 50 -5 57 10 4 10 6 0 6 -7 1 -13 13
-13 27 0 15 -9 35 -21 45 -21 18 -55 152 -43 171 3 5 1 15 -6 23 -7 9 -10 44
-7 102 4 96 22 172 43 189 8 6 14 25 14 43 0 28 5 34 58 58 31 15 77 27 102
29 25 1 63 6 85 12 44 12 147 21 330 28 247 10 1244 12 1610 3 329 -8 388 -12
440 -28 79 -25 115 -42 115 -54 0 -6 16 -6 43 -1 23 4 90 7 150 6 80 -2 127 3
186 18 64 16 116 20 287 22 156 2 215 -1 233 -11 15 -8 27 -9 33 -3 16 16 58
202 58 257 0 27 8 85 17 128 15 68 15 88 4 155 -7 42 -22 98 -32 125 -24 61
-24 103 1 150 26 48 26 112 -1 156 -22 37 -22 82 0 172 11 42 9 52 -19 121
-35 88 -36 109 -13 175 13 37 18 92 20 238 2 105 4 210 6 235 1 34 -7 61 -31
108 -36 71 -41 127 -18 204 8 25 13 48 11 50 -2 2 -9 70 -15 152 -7 109 -15
160 -30 193 -20 45 -27 127 -12 150 4 6 19 16 34 22 22 8 28 18 34 57 8 56 -1
234 -15 282 -13 43 -6 58 29 71 36 12 47 48 27 87 -19 39 -12 143 14 214 19
51 20 62 9 160 -15 134 -26 170 -51 170 -11 0 -24 11 -30 24 -9 18 -7 31 10
64 18 35 21 59 21 166 0 109 3 129 21 160 19 32 21 49 18 163 -1 71 2 164 6
208 5 57 3 111 -9 187 -17 114 -15 128 21 171 31 38 32 130 3 184 -16 29 -20
57 -20 124 0 101 12 142 46 157 46 22 57 93 23 157 -17 33 -19 51 -14 98 6 56
5 58 -14 52 -15 -5 -24 1 -35 24 -23 43 -20 101 7 152 29 55 47 239 24 239 -8
0 -22 9 -32 20 -25 27 -51 25 -72 -6 -20 -28 -27 -36 -91 -91 -24 -21 -65 -59
-92 -85 -26 -25 -57 -49 -69 -53 -11 -3 -23 -15 -26 -26 -4 -10 -10 -19 -15
-19 -13 0 -60 -45 -60 -58 0 -6 -12 -20 -27 -32 -16 -11 -35 -33 -44 -48 -13
-21 -23 -26 -48 -24 -29 2 -31 0 -31 -31 0 -18 -5 -38 -12 -45 -17 -17 -53
-15 -69 4 -15 19 -18 122 -4 132 6 4 15 16 21 27 6 11 20 20 30 20 11 0 20 9
23 20 6 34 -22 495 -31 495 -4 0 -8 -36 -8 -80 0 -58 -3 -80 -13 -80 -9 0 -11
12 -9 40 4 35 2 40 -17 40 -18 0 -21 -6 -21 -40 0 -27 -4 -40 -14 -40 -17 0
-27 93 -19 182 6 67 -14 150 -42 173 -24 21 -47 78 -42 109 2 17 -2 40 -10 53
-22 34 -12 64 33 98 23 17 53 53 68 82 16 29 37 55 47 58 24 8 144 124 152
148 8 21 21 22 37 2 18 -21 36 1 45 55 7 40 9 42 21 25 8 -10 14 -32 14 -48 0
-22 4 -28 15 -23 8 3 15 1 15 -4 0 -6 7 -10 16 -10 13 0 15 12 13 81 -3 75 -2
83 17 90 22 8 64 55 64 71 0 5 16 24 35 42 19 19 35 38 35 43 0 18 -60 93 -74
93 -8 0 -22 -20 -31 -45 -10 -24 -25 -51 -35 -60 -38 -35 -100 24 -130 124
-14 49 -20 56 -44 59 -36 4 -53 -12 -66 -60 -6 -22 -16 -38 -22 -36 -6 2 -20
28 -30 58 -28 84 -72 122 -114 100 -19 -11 -26 -11 -39 0 -12 10 -21 10 -45 0
-18 -7 -46 -10 -69 -6 -56 9 -100 -10 -117 -50 -16 -37 -30 -42 -60 -19 -41
31 -92 12 -108 -42 -4 -13 -39 -51 -77 -85 -38 -35 -72 -73 -75 -85 -3 -12
-18 -30 -32 -39 -29 -19 -111 -106 -127 -134 -5 -10 -64 -66 -130 -124 -118
-104 -255 -249 -255 -270 0 -6 -17 -27 -37 -46 -21 -19 -48 -47 -60 -60 -21
-25 -72 -76 -94 -95 -6 -5 -23 -22 -38 -37 -99 -103 -131 -135 -152 -154 -13
-11 -116 -116 -229 -234 -229 -238 -241 -250 -250 -250 -4 0 -12 -10 -19 -23
-7 -12 -25 -28 -41 -35 -15 -7 -35 -23 -43 -35 -16 -25 -115 -123 -177 -177
-61 -52 -68 -59 -72 -68 -1 -4 -21 -15 -43 -23 -24 -9 -41 -22 -44 -34 -2 -10
-20 -35 -40 -55 -20 -20 -42 -45 -50 -57 -8 -12 -25 -24 -38 -28 -15 -3 -29
-19 -39 -45 -15 -38 -43 -58 -64 -45 -5 3 -10 1 -10 -5 0 -7 -6 -8 -18 -1 -15
8 -19 23 -21 74 -2 55 1 67 22 89 23 25 24 29 11 53 -8 15 -14 40 -14 56 0 16
-4 29 -10 29 -5 0 -10 7 -10 15 0 11 7 13 29 9 28 -6 30 -4 36 32 12 76 15 83
50 104 19 12 35 26 35 30 0 10 116 148 157 187 12 12 31 24 42 28 11 3 23 15
26 26 4 10 24 33 46 51 21 17 39 36 39 41 0 17 303 344 404 436 23 22 283 281
323 323 53 55 133 135 157 157 16 14 54 50 85 80 31 29 75 69 99 88 23 20 42
41 42 49 0 7 15 23 33 36 17 12 50 42 72 66 22 24 64 68 93 98 28 30 52 58 52
62 0 5 15 16 34 24 35 17 46 44 46 119 0 42 -27 68 -48 47z m719 -1144 c10 -9
15 -22 12 -30 -3 -8 0 -14 6 -14 17 0 13 -31 -6 -45 -30 -22 -78 35 -67 80 7
29 29 32 55 9z m-233 -141 c-10 -12 -13 -12 -20 1 -13 23 0 40 18 25 11 -9 12
-15 2 -26z m62 5 c0 -6 9 -8 20 -5 11 3 20 1 20 -4 0 -5 -24 -9 -52 -9 -46 1
-51 2 -36 14 10 7 15 16 12 19 -3 3 3 3 15 0 12 -3 21 -10 21 -15z m-3 -34
c-3 -3 -12 -4 -19 -1 -8 3 -5 6 6 6 11 1 17 -2 13 -5z m-103 -30 c18 -11 26
-28 31 -65 7 -47 5 -53 -21 -81 -16 -17 -24 -28 -17 -24 11 6 31 -39 50 -114
8 -33 11 -35 55 -38 31 -2 50 2 61 13 17 16 47 20 47 6 0 -5 -6 -12 -12 -14
-7 -3 -3 -6 10 -6 12 -1 22 -7 22 -16 0 -11 11 -15 35 -15 51 0 84 -40 85
-101 0 -60 -20 -79 -51 -50 -13 12 -25 21 -28 21 -20 -1 -61 -58 -61 -84 0 -8
11 -17 25 -20 28 -7 52 -43 37 -58 -11 -11 -62 0 -62 14 0 5 -15 22 -32 39
-25 22 -42 29 -72 29 -40 0 -40 0 -18 -16 12 -8 22 -26 22 -38 0 -13 9 -35 20
-49 11 -14 20 -32 20 -41 0 -9 14 -30 30 -48 17 -17 30 -33 30 -35 0 -18 -34
-62 -51 -66 -29 -8 -39 -1 -39 25 0 43 -64 111 -84 90 -15 -14 -5 -73 16 -92
12 -11 25 -20 29 -20 17 0 18 -34 2 -52 -16 -18 -33 -19 -76 -2 -10 3 -16 -4
-20 -25 -5 -22 -12 -31 -26 -31 -11 0 -29 -12 -41 -27 l-22 -28 -23 28 c-13
15 -28 27 -33 27 -13 0 -32 -126 -32 -209 0 -47 -5 -74 -14 -84 -8 -8 -19 -37
-24 -66 -9 -48 -8 -52 15 -69 29 -21 23 -42 -17 -60 -16 -7 -32 -23 -36 -35
-8 -25 -63 -82 -111 -116 -18 -12 -33 -30 -33 -39 0 -27 -29 -62 -51 -62 -10
0 -19 -6 -19 -13 0 -16 -39 -50 -64 -57 -11 -3 -25 -21 -31 -40 -8 -23 -20
-36 -35 -40 -16 -4 -27 -16 -32 -37 -5 -17 -16 -33 -27 -36 -11 -2 -27 -20
-37 -38 -9 -19 -33 -50 -53 -69 -20 -20 -43 -44 -52 -55 -10 -11 -28 -29 -40
-41 -35 -30 -109 -115 -109 -124 0 -4 -11 -11 -24 -14 -14 -3 -30 -20 -40 -40
-9 -20 -29 -43 -45 -52 -16 -9 -36 -30 -45 -45 -10 -16 -20 -29 -24 -29 -4 0
-41 -32 -82 -70 -41 -39 -82 -73 -91 -75 -9 -3 -29 -23 -43 -45 -14 -22 -31
-40 -37 -40 -6 0 -31 -21 -55 -46 -35 -35 -50 -45 -72 -42 l-27 3 -5 141 c-4
100 -9 146 -19 158 -11 13 -13 39 -9 114 3 53 4 103 1 110 -6 17 -38 15 -53
-3 -14 -17 -45 -12 -67 11 -9 8 -25 11 -44 7 -40 -8 -92 38 -83 74 10 37 -4
71 -33 85 -18 9 -29 24 -34 45 -3 18 -12 39 -18 47 -11 13 -15 12 -32 -5 -10
-10 -23 -19 -29 -19 -5 0 -17 -17 -26 -37 -10 -21 -22 -44 -28 -52 -5 -7 -11
-19 -12 -27 -1 -7 -8 -26 -16 -41 -9 -19 -11 -43 -7 -73 5 -36 3 -49 -12 -66
-11 -11 -19 -25 -19 -31 0 -6 -6 -13 -12 -16 -9 -2 -5 -16 15 -43 26 -38 27
-46 27 -156 0 -108 2 -118 26 -154 15 -21 28 -40 29 -42 2 -2 13 6 24 17 12
12 25 21 30 21 5 0 13 9 16 20 16 51 25 10 25 -116 0 -74 5 -144 10 -154 10
-18 12 -19 30 -3 11 10 20 28 20 41 0 13 4 20 10 17 6 -3 10 -33 10 -65 0 -47
3 -58 14 -54 17 6 30 -16 40 -65 8 -46 23 -61 57 -61 16 0 29 -5 29 -11 0 -5
14 -15 30 -20 23 -9 30 -17 30 -37 0 -15 7 -35 14 -44 12 -16 14 -16 34 7 12
14 29 25 37 25 8 0 15 6 15 14 0 7 7 19 15 26 24 20 17 54 -17 90 -28 28 -30
32 -12 28 18 -5 21 -2 16 16 -3 11 -1 18 3 14 12 -11 35 11 35 33 0 43 -59 34
-61 -9 -1 -25 -2 -24 -11 8 -16 56 -21 131 -9 143 7 7 13 3 20 -15 5 -13 18
-26 28 -27 37 -3 161 0 263 7 162 11 458 8 635 -6 163 -14 430 -33 475 -34 14
0 58 7 98 16 64 15 124 16 500 12 235 -3 450 -9 477 -13 45 -7 50 -11 53 -35
2 -16 -2 -28 -8 -28 -6 0 -9 -4 -6 -8 3 -5 -6 -15 -20 -23 -14 -7 -30 -21 -35
-31 -5 -10 -16 -18 -24 -18 -10 0 -15 -10 -15 -31 0 -34 18 -107 31 -124 17
-23 27 -98 18 -124 -6 -14 -10 -28 -9 -30 1 -2 -2 -7 -7 -10 -4 -3 -14 -23
-21 -43 -11 -31 -11 -45 0 -75 7 -21 16 -41 20 -44 5 -3 -1 -15 -12 -27 -11
-11 -20 -28 -20 -37 0 -12 -12 -15 -53 -15 l-53 0 -15 -42 c-11 -29 -23 -45
-40 -49 -32 -9 -349 -10 -371 -1 -10 4 -64 4 -120 0 -307 -19 -393 -21 -428
-6 -40 16 -82 16 -225 -1 -96 -12 -399 -19 -590 -14 -49 2 -155 -1 -235 -5
-80 -4 -165 -4 -190 1 -25 5 -74 10 -110 12 -36 2 -91 7 -123 11 -34 4 -80 2
-110 -4 -50 -11 -385 -37 -457 -36 -19 0 -125 5 -235 10 -202 9 -232 9 -451 3
l-121 -4 -37 30 c-67 52 -65 52 -84 28 -15 -20 -23 -22 -67 -17 -27 3 -68 1
-91 -4 -42 -9 -114 9 -114 30 0 5 -11 19 -25 32 -14 13 -25 30 -25 38 0 8 -6
20 -12 26 -7 7 -14 35 -15 63 -1 30 -7 56 -16 62 -26 22 -39 75 -35 142 5 86
29 120 84 120 22 0 49 6 62 13 23 13 62 8 62 -8 0 -12 41 -50 54 -50 5 0 7 3
3 6 -3 3 7 20 23 38 17 17 30 36 30 42 0 7 8 22 18 34 18 22 18 22 53 4 19
-10 44 -19 56 -21 18 -1 22 4 25 38 2 27 0 39 -9 39 -7 0 -13 7 -13 15 0 10
-10 15 -34 15 -19 0 -38 5 -41 11 -5 7 12 9 48 8 47 -2 63 2 109 31 29 19 81
62 115 97 34 35 68 63 76 63 7 0 19 11 25 25 9 18 19 25 41 25 26 0 32 -7 65
-75 28 -57 46 -81 80 -105 25 -16 51 -30 59 -30 21 0 37 45 37 106 0 75 -11
93 -55 89 -41 -4 -51 6 -60 60 -11 60 -20 73 -34 47 -7 -12 -16 -22 -21 -22
-18 0 -10 43 13 66 12 12 42 48 67 78 25 31 53 56 62 56 10 0 29 18 42 39 14
22 34 42 45 46 11 3 23 15 27 27 7 23 131 148 146 148 6 0 37 25 71 55 33 30
68 55 77 55 9 0 29 20 45 45 26 42 102 105 126 105 8 0 13 15 10 33 -1 5 7 11
17 14 10 2 24 20 31 39 13 36 29 42 49 22 16 -16 32 5 32 40 0 12 4 22 8 22 5
0 26 24 48 54 21 29 51 62 67 72 15 11 30 27 33 36 9 30 34 48 65 48 24 0 29
-4 29 -23 0 -13 -13 -36 -30 -52 -31 -29 -36 -54 -24 -114 6 -27 11 -31 39
-31 18 0 43 8 55 18 22 18 22 19 5 51 -18 36 -13 81 9 81 7 0 23 -13 36 -30
27 -36 49 -44 84 -31 46 18 32 81 -19 85 -22 2 -16 42 9 56 15 7 33 31 42 57
16 42 18 43 60 43 31 0 46 5 52 18 5 9 12 66 15 125 5 116 17 149 67 174 22
11 59 73 60 101 0 6 4 12 9 12 6 0 38 28 73 63 35 34 95 91 134 127 39 36 79
79 90 95 10 17 75 85 144 152 69 66 131 127 138 135 7 7 35 36 61 63 26 28 54
56 62 63 8 7 39 38 69 70 63 65 110 103 120 97 4 -2 24 14 45 35 22 22 43 40
48 40 23 0 67 43 67 66 0 50 47 69 94 38z m66 -14 c0 -5 -7 -10 -15 -10 -8 0
-15 5 -15 10 0 6 7 10 15 10 8 0 15 -4 15 -10z m387 -729 c11 -17 9 -23 -16
-43 -16 -13 -36 -39 -45 -59 -10 -22 -32 -44 -56 -58 -22 -12 -41 -21 -41 -19
-11 26 -3 58 20 83 15 17 35 42 44 57 14 22 55 52 77 57 3 1 11 -8 17 -18z
m-2857 -141 c0 -5 -2 -10 -4 -10 -3 0 -8 5 -11 10 -3 6 -1 10 4 10 6 0 11 -4
11 -10z m2646 -94 c-2 -42 -21 -66 -52 -66 -17 0 -24 6 -24 20 0 24 37 63 50
55 6 -4 10 1 10 9 0 9 4 16 8 16 5 0 8 -15 8 -34z m-2590 -41 c12 -8 23 -12
26 -10 3 3 5 -2 5 -10 0 -8 -4 -12 -9 -9 -4 3 -8 -1 -8 -9 0 -8 7 -18 16 -21
13 -5 11 -11 -10 -39 -14 -19 -26 -39 -26 -44 0 -21 -29 -35 -58 -28 -21 4
-34 16 -47 44 -15 35 -15 41 -1 76 26 62 68 81 112 50z m2479 -77 c-10 -32
-15 -36 -57 -42 -40 -6 -48 3 -23 28 8 8 15 19 15 25 0 6 16 11 36 11 32 0 35
-2 29 -22z m-2748 -24 c5 -15 -24 -44 -43 -44 -21 0 -29 27 -13 46 14 17 50
15 56 -2z m180 -133 c-11 -29 -44 -48 -59 -33 -14 14 4 51 31 60 35 13 41 7
28 -27z m-314 -57 c24 -33 19 -67 -13 -75 -38 -9 -60 7 -60 44 0 58 41 76 73
31z m1451 4 c13 -52 7 -76 -23 -86 -16 -6 -32 -8 -35 -5 -3 3 -15 -6 -28 -20
-29 -33 -75 -41 -70 -13 5 27 33 63 60 75 12 6 22 15 22 21 0 17 34 50 51 50
9 0 19 -10 23 -22z m-1254 -35 c0 -5 -5 -15 -10 -23 -8 -12 -10 -11 -10 8 0
12 5 22 10 22 6 0 10 -3 10 -7z m-100 -93 c0 -5 -5 -10 -11 -10 -5 0 -7 5 -4
10 3 6 8 10 11 10 2 0 4 -4 4 -10z m-325 -50 c-5 -8 -11 -8 -17 -2 -6 6 -7 16
-3 22 5 8 11 8 17 2 6 -6 7 -16 3 -22z m-44 -30 c14 -8 19 -21 19 -50 0 -53
-16 -59 -50 -19 -34 40 -36 47 -12 65 21 16 19 16 43 4z m-227 -249 c9 -14 -2
-35 -24 -49 -16 -10 -21 -9 -30 7 -7 15 -6 23 6 35 17 18 40 21 48 7z m-97
-89 c-21 -46 -38 -72 -67 -105 -19 -21 -35 -44 -35 -50 0 -7 -15 -19 -32 -27
-28 -13 -33 -20 -33 -52 0 -21 4 -38 10 -38 5 0 17 -12 26 -26 15 -22 15 -27
3 -35 -8 -5 -24 -9 -36 -9 -26 0 -43 -27 -43 -69 0 -16 -4 -32 -9 -35 -12 -8
-70 16 -75 31 -7 16 3 43 15 43 5 0 9 7 9 15 0 8 5 15 10 15 6 0 10 9 10 19 0
17 -5 19 -37 14 -38 -6 -56 -20 -47 -35 3 -4 -2 -5 -11 -2 -14 6 -14 9 4 28
12 12 21 30 21 38 0 30 12 49 44 65 17 9 37 24 44 35 10 14 17 16 32 8 25 -13
30 -13 25 3 -6 19 29 82 45 81 8 -1 24 -3 34 -5 16 -3 20 2 22 35 4 56 9 63
43 64 17 0 30 -2 28 -6z m68 -109 c-3 -19 -10 -44 -16 -55 -22 -41 -27 -74
-14 -92 15 -20 9 -52 -11 -60 -18 -7 -100 73 -96 94 8 36 45 97 65 105 12 6
22 16 22 23 0 17 25 32 42 25 10 -4 12 -16 8 -40z m1396 -190 c10 -10 9 -17
-8 -35 -11 -13 -24 -36 -28 -53 l-8 -30 -7 26 c-4 14 -13 35 -19 47 -16 30 0
58 33 57 14 0 31 -6 37 -12z m-1523 -86 c2 -11 -3 -17 -16 -17 -24 0 -32 8
-25 26 7 20 37 13 41 -9z m1775 -89 c9 -61 -16 -81 -31 -25 -9 33 2 72 17 62
5 -2 11 -19 14 -37z m-1850 19 c9 -24 -8 -39 -36 -32 -22 6 -25 10 -16 26 11
22 44 25 52 6z m1866 -443 c-19 -23 -29 -16 -29 22 0 28 3 35 15 30 8 -3 16 0
16 7 1 7 4 -1 6 -16 3 -16 -1 -35 -8 -43z m-2299 31 c0 -18 -5 -25 -20 -25
-20 0 -28 28 -13 43 15 16 33 6 33 -18z m454 -280 c8 -8 23 -15 33 -16 13 -1
11 -3 -7 -9 -14 -4 -30 -8 -37 -9 -13 -1 -43 26 -43 40 0 14 37 10 54 -6z
m159 -6 c-7 -7 -21 -7 -44 -1 l-34 10 45 1 c31 1 41 -2 33 -10z m4403 -75 c-3
-8 -10 -14 -16 -14 -14 0 -13 38 3 54 10 12 13 11 15 -6 2 -11 1 -26 -2 -34z
m-4876 -460 c0 -18 -37 -38 -45 -24 -10 16 14 50 30 44 8 -4 15 -12 15 -20z
m210 -2803 c130 -10 163 -16 203 -37 27 -13 57 -24 68 -24 20 0 26 -15 9 -25
-6 -3 -10 -52 -10 -111 l0 -104 25 0 c23 0 25 -4 25 -40 0 -29 4 -40 15 -40
11 0 15 -11 15 -40 0 -22 5 -40 10 -40 6 0 10 -15 10 -34 0 -19 5 -38 10 -41
12 -7 13 -55 2 -72 -4 -6 -21 -13 -37 -15 -28 -3 -30 -6 -33 -48 -4 -49 17
-152 28 -145 9 5 17 -41 28 -153 6 -66 10 -77 37 -98 33 -26 34 -45 5 -82 -15
-19 -17 -28 -8 -52 5 -17 14 -30 19 -30 16 0 9 -40 -12 -69 -12 -16 -19 -34
-15 -39 12 -20 -17 -100 -37 -106 -17 -4 -19 -11 -14 -46 3 -24 14 -50 26 -61
29 -27 29 -111 1 -157 -11 -18 -20 -37 -20 -43 0 -6 -9 -24 -20 -39 l-20 -29
26 -18 c44 -30 67 -55 58 -62 -5 -3 -9 -26 -9 -51 0 -58 -24 -66 -56 -18 -12
18 -38 45 -58 61 -94 72 -120 94 -135 119 -9 15 -25 30 -37 33 -11 4 -31 24
-45 46 -13 21 -29 39 -34 39 -9 0 -137 119 -190 175 -13 13 -48 49 -83 82 -4
5 -33 35 -65 69 -31 33 -71 70 -89 83 -18 12 -40 35 -50 51 -9 17 -23 30 -29
30 -35 0 -36 -41 -41 -1370 -3 -1101 -6 -1312 -19 -1349 -8 -25 -14 -65 -14
-90 l-1 -46 -15 28 c-8 15 -18 27 -22 27 -5 0 -16 -29 -27 -65 -10 -37 -22
-68 -26 -71 -5 -2 -15 9 -24 26 -16 31 -39 39 -49 18 -5 -10 -7 -10 -12 0 -3
6 -11 12 -18 12 -9 0 -16 42 -25 148 -13 140 -27 196 -55 214 -20 13 -25 9
-37 -33 -24 -79 -31 -7 -19 176 10 132 10 188 0 250 -16 110 -29 863 -20 1175
8 265 -4 1743 -15 1958 -7 118 -6 124 16 158 l24 35 365 -4 c201 -2 435 -10
520 -16z m908 -1228 c59 -41 142 -116 142 -130 0 -7 15 -23 33 -37 18 -14 39
-37 47 -50 7 -14 27 -32 44 -40 37 -17 57 -38 79 -82 9 -18 36 -43 61 -58 24
-14 54 -42 66 -61 12 -19 25 -35 30 -35 5 0 21 -18 37 -40 15 -22 38 -43 50
-47 54 -19 713 -677 918 -917 42 -49 96 -109 121 -133 24 -25 44 -48 44 -53 0
-16 33 -41 47 -36 8 3 17 -3 22 -17 5 -12 21 -33 35 -46 27 -26 34 -59 15 -78
-19 -19 -6 -56 24 -64 20 -5 27 -4 27 7 0 24 36 16 48 -11 6 -14 17 -25 23
-25 20 0 125 -112 148 -158 13 -26 32 -47 49 -53 37 -14 80 -56 103 -101 10
-20 22 -38 27 -40 14 -5 52 -74 52 -93 0 -31 -23 -85 -36 -85 -7 0 -14 -5 -16
-12 -3 -9 -15 -7 -45 5 l-41 16 -24 -31 c-13 -18 -38 -47 -55 -66 -35 -36 -39
-52 -23 -83 8 -15 21 -19 59 -19 49 0 57 7 75 63 3 9 13 17 22 17 12 0 15 -6
10 -22 -3 -13 -6 -31 -6 -40 0 -10 -7 -18 -15 -18 -11 0 -15 -11 -15 -40 0
-22 -4 -40 -10 -40 -5 0 -10 -10 -10 -23 0 -16 -9 -27 -32 -37 -18 -7 -39 -13
-45 -13 -7 0 -10 -4 -7 -9 4 -6 -2 -7 -16 -3 -14 4 -20 3 -16 -3 6 -11 -11
-69 -27 -90 -8 -10 -13 -9 -27 3 -9 8 -24 15 -34 15 -9 0 -16 6 -15 13 3 25
-2 35 -32 67 l-32 33 -13 -24 c-20 -37 -17 -47 21 -60 36 -13 39 -17 35 -59
-2 -29 -33 -62 -46 -50 -9 8 -104 60 -110 60 -10 0 -2 -39 9 -43 9 -4 9 -8 -1
-15 -11 -7 -11 -18 -4 -45 7 -26 7 -39 -1 -45 -14 -11 -52 1 -64 20 -4 8 -23
24 -40 37 -18 12 -33 29 -33 36 0 8 -13 21 -29 30 -17 8 -36 24 -44 36 -8 11
-30 28 -48 37 -24 12 -37 29 -47 59 -8 25 -20 43 -28 43 -8 0 -24 16 -35 35
-12 19 -26 35 -32 35 -6 0 -28 17 -49 38 -21 20 -49 48 -63 62 -14 14 -31 32
-39 40 -7 8 -34 33 -60 55 -72 62 -166 155 -166 166 0 5 -18 20 -39 33 -22 14
-42 33 -45 43 -3 10 -20 27 -37 37 -17 10 -35 30 -40 45 -5 14 -23 34 -39 43
-17 9 -35 28 -42 42 -6 14 -20 29 -32 32 -12 4 -37 23 -56 43 -20 20 -44 43
-55 52 -11 9 -56 55 -100 104 -44 48 -93 100 -109 114 -16 14 -34 32 -40 39
-36 44 -86 99 -118 131 -20 20 -40 50 -44 66 -7 33 -31 65 -48 65 -20 0 -106
88 -106 109 0 11 -4 22 -9 25 -13 8 21 76 38 76 26 0 -2 18 -33 22 -23 2 -32
10 -42 41 -7 21 -9 37 -3 37 5 0 8 5 6 11 -1 6 11 20 26 32 24 19 29 20 37 7
5 -8 10 -31 10 -50 0 -54 14 -68 30 -30 11 28 10 37 -10 79 -23 51 -22 94 6
136 19 29 27 94 17 140 -7 33 -14 42 -40 49 -26 8 -32 16 -37 47 -3 21 -13 44
-21 53 -8 8 -15 21 -15 28 0 7 -7 22 -15 32 -8 11 -15 28 -15 37 0 27 -22 69
-35 69 -16 0 -18 72 -2 82 9 6 9 10 -1 20 -9 9 -12 9 -12 -5 0 -9 -4 -17 -10
-17 -6 0 -10 33 -10 80 0 47 -4 80 -10 80 -6 0 -10 33 -10 80 0 67 3 81 19 89
25 14 44 64 39 101 -6 38 7 38 60 3z m-165 -19 c8 -8 -13 -65 -23 -59 -10 6
-19 53 -12 60 7 7 27 6 35 -1z m28 -703 c13 -2 39 -70 39 -101 0 -42 -21 -35
-32 11 -15 60 -18 65 -28 50 -11 -19 -39 -6 -35 16 2 10 4 21 4 25 1 5 11 6
24 4 12 -3 25 -5 28 -5z m-278 -25 c9 -7 17 -18 17 -24 0 -6 6 -15 13 -19 35
-20 38 -82 6 -117 -16 -18 -36 14 -37 61 0 26 -5 49 -11 51 -6 2 -9 7 -6 12 3
5 -4 11 -15 15 -16 5 -17 9 -7 20 15 18 18 18 40 1z m-73 -56 c0 -5 -4 -10 -9
-10 -6 0 -13 5 -16 10 -3 6 1 10 9 10 9 0 16 -4 16 -10z m270 -31 c0 -22 -5
-29 -20 -29 -15 0 -20 7 -20 29 0 28 16 44 33 34 4 -2 7 -17 7 -34z m52 -64
c3 -3 0 -30 -7 -60 -11 -44 -10 -58 1 -80 14 -27 9 -55 -10 -55 -23 1 -63 48
-68 79 -4 27 -1 34 19 42 13 5 23 17 23 28 0 40 23 65 42 46z m148 -96 c0 -34
-24 -49 -46 -27 -13 13 -12 18 6 41 26 32 40 27 40 -14z m-45 -211 c32 -15 33
-38 1 -36 -14 1 -23 5 -20 9 2 4 -3 9 -11 13 -17 6 -21 26 -5 26 5 0 21 -5 35
-12z m2466 -1278 c6 -16 17 -30 25 -30 17 0 64 -29 64 -39 0 -3 -4 -12 -9 -20
-12 -19 -47 1 -66 39 -9 17 -22 30 -29 30 -13 0 -26 20 -26 41 0 22 32 6 41
-21z m1319 -50 c0 -10 -7 -23 -15 -30 -12 -10 -16 -8 -24 11 -4 13 -6 29 -4
35 7 18 43 4 43 -16z m-1834 -626 c35 -17 60 -69 43 -88 -11 -12 -59 13 -59
31 0 7 -5 13 -10 13 -12 0 -30 41 -23 53 6 10 10 9 49 -9z"/>
<path d="M11520 10970 c0 -5 7 -10 16 -10 8 0 12 5 9 10 -3 6 -10 10 -16 10
-5 0 -9 -4 -9 -10z"/>
<path d="M11348 10833 c-34 -9 -35 -93 -2 -93 8 0 14 -10 14 -26 0 -39 17 -20
24 28 4 23 11 47 17 54 7 8 5 17 -6 28 -17 17 -18 17 -47 9z"/>
<path d="M11197 9933 c-17 -4 -16 -6 4 -24 26 -22 43 -16 29 12 -6 10 -12 18
-13 18 -1 -1 -10 -3 -20 -6z"/>
<path d="M10272 9803 c2 -21 8 -38 13 -38 6 0 11 17 13 38 3 29 0 37 -13 37
-13 0 -16 -8 -13 -37z"/>
<path d="M11065 9808 c8 -35 12 -44 19 -37 7 8 -6 69 -16 69 -6 0 -7 -13 -3
-32z"/>
<path d="M10927 9714 c-4 -4 -7 -23 -7 -43 0 -75 24 -106 45 -59 6 12 24 29
40 38 17 8 32 16 34 17 1 1 -5 11 -15 21 -20 21 -84 38 -97 26z"/>
<path d="M9819 9443 c-12 -15 -12 -16 4 -10 10 4 17 2 17 -5 0 -9 3 -9 11 -1
11 11 5 33 -10 33 -5 0 -15 -8 -22 -17z"/>
<path d="M9153 8944 c-9 -4 -13 -30 -13 -79 0 -63 3 -73 19 -78 13 -3 20 -18
25 -52 4 -26 14 -62 21 -79 7 -17 19 -46 25 -63 7 -18 17 -33 23 -33 6 0 21
-10 33 -21 l23 -22 8 29 c4 16 8 81 8 144 -1 124 -13 167 -43 155 -43 -18 -46
-15 -71 75 -6 24 -32 35 -58 24z"/>
<path d="M8997 8674 c-10 -10 -9 -62 2 -68 11 -7 21 45 12 62 -4 7 -10 9 -14
6z"/>
<path d="M11343 8394 c0 -7 5 -10 11 -7 6 4 5 -1 -3 -10 -9 -11 -10 -17 -2
-17 6 0 11 -7 11 -14 0 -24 -43 -63 -77 -70 -49 -11 -57 -27 -37 -75 9 -23 21
-41 27 -41 23 0 99 43 113 65 10 16 13 42 11 91 -3 39 0 75 6 82 8 10 3 12
-25 10 -20 -1 -35 -7 -35 -14z"/>
<path d="M9680 8315 c0 -8 5 -15 10 -15 6 0 10 7 10 15 0 8 -4 15 -10 15 -5 0
-10 -7 -10 -15z"/>
<path d="M10307 7872 c-31 -33 -36 -86 -12 -132 26 -50 53 -37 75 36 11 36 10
47 -6 83 -10 22 -21 41 -24 41 -3 0 -18 -13 -33 -28z"/>
<path d="M7153 1615 c-11 -20 3 -95 18 -95 12 0 11 81 0 99 -7 11 -10 10 -18
-4z"/>
<path d="M9453 2554 c-24 -26 -31 -86 -14 -112 6 -11 11 -10 25 3 9 9 16 25
16 35 0 10 5 22 10 25 15 9 13 75 -2 75 -7 0 -23 -12 -35 -26z"/>
<path d="M10726 1844 c-8 -22 -8 -44 2 -44 4 0 16 7 26 15 16 12 17 17 6 30
-16 19 -26 19 -34 -1z"/>
<path d="M11049 1447 c-17 -13 -15 -77 1 -77 34 0 55 39 30 55 -6 4 -8 10 -5
15 9 14 -9 19 -26 7z"/>
<path d="M10097 1369 c-17 -20 -18 -22 -1 -40 20 -22 54 -25 54 -4 0 18 -21
65 -29 65 -4 0 -15 -9 -24 -21z"/>
<path d="M11040 1349 c0 -5 5 -7 10 -4 6 3 10 8 10 11 0 2 -4 4 -10 4 -5 0
-10 -5 -10 -11z"/>
<path d="M10880 999 c0 -5 5 -7 10 -4 6 3 10 8 10 11 0 2 -4 4 -10 4 -5 0 -10
-5 -10 -11z"/>
<path d="M3644 12646 c-18 -8 -40 -28 -50 -45 -23 -38 -56 -41 -86 -6 -28 33
-44 32 -57 -5 -13 -38 -26 -38 -46 1 l-16 31 -26 -34 c-13 -18 -33 -49 -43
-69 -31 -60 -63 -62 -78 -6 -9 36 -32 44 -75 28 -26 -10 -30 -18 -42 -94 -7
-44 -24 -44 -39 0 -9 25 -88 113 -101 113 -3 0 -20 -14 -40 -31 l-35 -31 -31
26 c-40 34 -65 33 -97 -4 -15 -16 -31 -30 -36 -30 -5 0 -36 20 -67 45 -79 62
-114 62 -165 1 -20 -24 -42 -42 -49 -40 -7 3 -17 23 -24 45 -14 48 -46 54 -61
12 -19 -52 -25 -58 -71 -58 -41 0 -45 3 -55 33 -5 17 -15 37 -20 42 -16 16
-62 -26 -69 -63 -4 -18 -13 -41 -21 -51 -13 -19 -14 -19 -49 -1 -34 19 -35 19
-62 -3 -16 -12 -46 -31 -69 -41 -44 -20 -54 -36 -54 -83 0 -47 29 -96 67 -114
21 -11 42 -32 55 -58 34 -68 97 -142 190 -220 9 -8 19 -12 21 -9 3 2 5 -2 4
-9 -1 -40 3 -48 26 -43 29 7 47 -6 52 -37 3 -17 0 -28 -10 -32 -17 -6 -18 -62
0 -63 5 0 18 -4 28 -8 13 -5 17 -3 15 11 -5 62 11 69 56 24 82 -79 104 -98
123 -104 12 -4 34 -23 49 -43 15 -19 52 -59 83 -89 31 -29 63 -60 71 -68 8 -9
44 -44 79 -78 62 -61 172 -173 336 -343 43 -44 124 -128 181 -187 56 -58 110
-119 118 -135 8 -15 31 -45 51 -67 19 -21 35 -44 35 -51 0 -7 10 -15 23 -19
21 -5 54 -52 43 -63 -2 -2 -16 -5 -32 -7 -27 -3 -43 -29 -38 -63 1 -7 2 -22 3
-33 1 -23 31 -28 31 -6 0 8 9 18 21 21 16 5 20 13 16 31 -4 20 1 25 30 30 30
6 38 2 69 -30 19 -20 38 -36 43 -36 4 0 14 -12 21 -26 8 -14 28 -33 45 -41 16
-8 44 -29 62 -47 17 -17 54 -51 83 -76 60 -53 67 -60 117 -120 59 -70 103
-128 103 -136 0 -3 19 -25 43 -48 95 -95 103 -107 111 -179 4 -37 4 -89 0
-116 -7 -55 7 -91 35 -91 10 0 24 -6 31 -14 6 -8 24 -16 38 -18 21 -2 28 -9
30 -30 3 -24 8 -28 33 -28 17 0 33 -7 41 -19 6 -10 18 -17 26 -14 19 8 6 99
-20 134 -20 26 -18 49 4 49 14 0 74 -51 135 -115 26 -27 61 -61 77 -75 25 -22
315 -313 461 -462 57 -58 85 -66 105 -28 5 9 14 300 21 646 6 346 13 631 15
633 2 2 10 -4 19 -13 28 -27 93 -15 138 25 17 15 18 38 16 295 -1 154 -6 284
-11 291 -5 6 -13 85 -18 175 -9 153 -22 257 -36 279 -7 13 -33 -20 -34 -43 0
-9 6 -18 13 -21 9 -3 9 -9 -1 -27 -8 -12 -16 -47 -19 -76 -8 -78 -24 -55 -21
29 6 147 -1 237 -17 237 -12 0 -15 -15 -16 -72 0 -40 -4 -95 -9 -123 -6 -37
-8 -5 -10 125 -5 404 -6 1018 -2 1063 5 54 22 64 22 13 0 -18 7 -39 15 -46 12
-10 15 -7 21 15 7 27 -9 76 -23 74 -22 -4 -33 3 -33 18 0 26 -48 101 -69 108
-10 3 -25 3 -34 -1 -8 -3 -34 7 -57 22 -40 26 -43 27 -55 11 -7 -10 -16 -38
-19 -61 -8 -54 -41 -91 -92 -105 -30 -8 -43 -8 -61 4 -26 17 -28 34 -11 82 14
37 2 58 -25 47 -17 -6 -67 -73 -80 -106 -3 -10 -18 -20 -33 -24 -21 -5 -31 -2
-45 15 -23 28 -39 19 -39 -20 0 -49 -16 -69 -55 -67 -41 1 -62 -14 -70 -51 -5
-25 -45 -81 -58 -81 -4 0 -16 18 -27 40 -32 64 -114 84 -126 33 -12 -55 -16
-63 -27 -63 -28 0 -59 35 -87 96 -16 36 -38 76 -50 91 -24 30 -26 66 -5 83 15
13 20 42 9 53 -10 9 -133 -121 -154 -163 l-18 -35 -11 28 c-6 16 -11 35 -11
43 0 28 -19 52 -62 77 -59 34 -122 44 -153 23 -47 -31 -75 -10 -75 54 0 23
-10 42 -34 66 -38 38 -39 38 -82 20z"/>
<path d="M250 12438 c-6 -24 -16 -59 -21 -78 -17 -61 -23 -250 -9 -310 27
-123 38 -243 27 -314 -12 -84 10 -194 49 -247 13 -18 24 -38 24 -43 0 -6 16
-22 36 -35 19 -14 42 -37 50 -52 7 -15 22 -30 31 -33 10 -3 43 -31 73 -62 30
-31 72 -73 93 -93 20 -20 37 -42 37 -48 0 -6 48 -60 106 -119 62 -65 107 -120
111 -136 5 -23 25 -38 58 -42 19 -2 106 -81 121 -108 8 -15 28 -35 44 -43 35
-18 108 -95 130 -136 9 -16 26 -36 38 -45 12 -8 22 -23 22 -32 0 -24 28 -62
46 -62 8 0 27 -13 42 -28 15 -16 35 -32 44 -35 9 -3 25 -19 34 -34 10 -15 27
-38 39 -50 12 -11 25 -39 29 -62 7 -44 16 -54 54 -55 26 -1 31 -8 54 -64 7
-18 18 -30 25 -27 7 2 15 -6 19 -21 8 -31 39 -53 66 -46 19 4 20 1 15 -34 -3
-21 -8 -53 -11 -71 -6 -25 -3 -34 13 -42 37 -20 44 -14 39 39 -5 49 -5 50 22
50 31 0 85 -54 102 -101 10 -28 92 -104 127 -117 25 -9 67 -42 136 -107 29
-27 75 -70 102 -95 51 -47 445 -435 544 -537 31 -32 82 -80 113 -108 32 -27
65 -59 74 -69 9 -11 47 -53 83 -95 36 -42 102 -111 147 -153 l81 -77 93 -1
c51 0 107 -1 123 -1 85 -4 595 10 623 16 18 4 37 16 42 26 25 46 4 73 -275
354 -150 151 -308 312 -350 357 -88 94 -173 181 -213 218 -15 14 -39 41 -54
60 -45 57 -87 102 -215 234 -68 68 -123 128 -123 134 0 5 -28 38 -63 73 -37
38 -66 78 -72 99 -8 28 -17 36 -48 45 -24 7 -60 32 -100 71 -34 34 -70 64 -79
67 -10 3 -27 21 -39 40 -13 19 -32 38 -43 43 -12 5 -30 23 -41 41 -11 17 -33
37 -48 44 -16 7 -40 30 -53 51 -14 21 -31 41 -39 44 -8 3 -17 16 -21 27 -3 12
-23 38 -43 58 -121 119 -183 190 -177 205 14 36 18 92 7 98 -17 11 -13 48 9
84 23 38 50 43 50 9 0 -26 21 -77 32 -77 18 0 24 36 16 97 -11 78 -6 101 26
140 17 20 25 45 28 89 4 46 12 68 28 84 16 16 21 30 17 49 -9 41 -26 81 -35
81 -5 0 -15 -12 -23 -27 -19 -39 -32 -45 -46 -26 -7 9 -15 14 -18 11 -3 -2
-14 -45 -24 -94 -11 -50 -26 -105 -35 -124 -8 -19 -17 -47 -21 -62 -3 -16 -11
-28 -19 -28 -30 0 -45 -71 -30 -152 8 -47 -17 -63 -44 -28 -37 48 -64 70 -87
70 -16 0 -30 11 -46 38 -13 20 -34 47 -48 59 l-25 22 27 12 c15 7 27 16 27 21
0 4 12 8 28 9 l27 0 -24 12 c-13 6 -31 27 -41 47 -45 96 -75 123 -105 93 -8
-8 -18 -25 -21 -39 -3 -13 -11 -24 -18 -24 -8 0 -8 -2 0 -8 16 -10 34 -48 27
-56 -13 -13 -23 -5 -37 28 -9 21 -23 36 -39 40 -14 3 -29 15 -32 27 -4 12 -26
29 -53 40 -31 13 -78 52 -142 118 -53 53 -104 100 -113 104 -9 3 -27 22 -39
41 -13 20 -34 40 -48 46 -14 6 -47 36 -75 68 -27 31 -68 75 -90 96 -22 22 -44
47 -50 56 -40 65 -71 109 -76 110 -3 0 -55 48 -115 106 -60 58 -121 112 -135
119 -15 8 -51 41 -80 73 -30 33 -104 105 -166 161 -97 88 -116 101 -147 101
-33 0 -36 -3 -46 -42z"/>
<path d="M1804 12295 c-6 -15 14 -50 24 -41 7 7 32 -20 32 -35 0 -7 3 -10 6
-6 3 3 -2 26 -11 51 -18 46 -40 59 -51 31z"/>
<path d="M1585 12222 c-3 -8 -12 -12 -19 -9 -26 10 -39 -20 -33 -74 4 -28 11
-57 17 -63 5 -7 8 -15 5 -18 -9 -9 17 -68 27 -62 6 4 14 0 19 -7 7 -9 7 -5 3
14 -6 26 -5 27 39 27 66 0 77 15 77 109 0 43 -3 81 -7 84 -9 10 -32 -25 -33
-50 0 -46 -20 -24 -44 49 -6 20 -43 20 -51 0z"/>
<path d="M12412 12221 c-12 -7 -20 -76 -10 -87 11 -11 38 28 38 56 0 32 -10
43 -28 31z"/>
<path d="M12260 12090 c0 -5 -7 -10 -15 -10 -8 0 -15 -8 -15 -17 0 -9 -7 -24
-16 -34 -14 -15 -21 -34 -23 -62 -1 -5 -21 -28 -46 -53 -25 -24 -45 -48 -45
-52 0 -16 13 -22 26 -11 9 7 19 7 33 -1 18 -9 21 -8 21 9 0 11 6 22 13 25 10
5 10 7 0 12 -26 12 -12 24 26 24 37 0 39 2 46 38 5 20 7 49 6 64 -2 19 3 28
18 33 24 7 28 25 6 25 -8 0 -15 5 -15 10 0 6 -4 10 -10 10 -5 0 -10 -4 -10
-10z"/>
<path d="M1847 11936 c-9 -9 -20 -16 -26 -16 -6 0 -11 -18 -11 -40 0 -28 4
-40 14 -40 8 0 16 -7 20 -15 8 -23 41 -18 55 8 7 13 11 43 9 68 -2 36 -7 45
-24 47 -12 2 -28 -4 -37 -12z"/>
<path d="M2137 11653 c-12 -12 -7 -22 8 -17 8 4 15 10 15 15 0 11 -14 12 -23
2z"/>
<path d="M1800 11405 c-16 -20 -5 -45 20 -45 16 0 20 7 20 30 0 33 -19 40 -40
15z"/>
<path d="M202 11095 c-7 -14 -12 -48 -12 -75 0 -27 -5 -61 -11 -77 -18 -48
-19 -86 -3 -151 15 -58 15 -69 0 -121 -21 -77 -21 -90 14 -210 36 -125 36
-132 6 -179 -21 -32 -26 -54 -31 -152 -5 -70 -3 -138 4 -172 5 -32 13 -98 17
-147 6 -82 5 -93 -20 -147 -14 -33 -39 -69 -54 -81 l-27 -23 -7 -192 c-3 -106
-9 -238 -13 -293 -5 -82 -3 -110 11 -155 15 -45 18 -90 19 -242 0 -229 1 -230
91 -200 55 18 103 20 734 27 371 4 747 6 835 4 88 -2 210 -4 270 -4 478 3 668
7 690 15 42 16 33 38 -54 135 -10 11 -62 61 -116 110 -54 50 -103 96 -109 103
-9 10 -75 79 -263 277 -11 11 -27 27 -35 35 -22 21 -96 101 -138 151 -19 23
-89 96 -155 163 -66 67 -127 136 -136 153 -9 16 -38 44 -65 62 -26 18 -71 58
-100 90 -28 31 -72 79 -97 106 -25 28 -51 63 -56 78 -6 15 -27 35 -50 46 -22
12 -52 38 -68 58 -31 42 -60 73 -68 73 -3 0 -21 18 -41 40 -20 22 -42 40 -48
40 -7 0 -26 15 -43 33 -16 17 -56 56 -87 86 -31 29 -63 65 -70 80 -8 14 -23
35 -35 45 -23 21 -27 56 -9 74 8 8 1 13 -31 18 -34 5 -47 14 -73 50 -17 24
-35 44 -40 44 -4 0 -8 7 -8 15 0 8 -9 15 -20 15 -30 0 -67 25 -145 101 -38 37
-108 104 -155 148 -133 127 -160 155 -160 163 0 19 -28 6 -38 -17z"/>
<path d="M1907 11109 c-22 -13 -22 -31 1 -50 15 -13 22 -14 35 -4 22 16 21 28
-1 48 -12 11 -22 13 -35 6z"/>
<path d="M2791 10974 c0 -11 3 -14 6 -6 3 7 2 16 -1 19 -3 4 -6 -2 -5 -13z"/>
<path d="M5594 10870 c-12 -20 -18 -630 -6 -630 12 0 21 -79 9 -83 -12 -4 3
-37 17 -37 6 0 17 14 25 31 10 24 11 36 2 55 -6 14 -11 45 -11 69 0 25 -4 45
-10 45 -13 0 -13 63 -1 76 5 5 11 101 12 214 2 166 0 212 -12 240 -12 27 -17
31 -25 20z"/>
<path d="M1054 10421 c4 -5 0 -12 -6 -14 -8 -3 -6 -6 5 -6 9 -1 17 6 17 14 0
8 -5 15 -11 15 -5 0 -8 -4 -5 -9z"/>
<path d="M1120 10330 c0 -5 9 -10 21 -10 11 0 17 5 14 10 -3 6 -13 10 -21 10
-8 0 -14 -4 -14 -10z"/>
<path d="M2845 10327 c-28 -17 -44 -39 -45 -60 0 -10 -9 -28 -20 -40 -45 -48
-32 -97 26 -97 18 0 23 -6 26 -32 2 -25 8 -33 23 -33 15 0 21 8 23 33 3 26 0
32 -16 32 -15 0 -18 6 -14 32 3 18 13 44 23 58 14 19 17 36 12 73 -6 51 -8 52
-38 34z"/>
<path d="M1843 9779 c-28 -10 -29 -25 -4 -39 27 -14 48 -13 54 4 9 22 -24 45
-50 35z"/>
<path d="M7179 9257 c-26 -40 -28 -55 -19 -144 14 -135 71 -233 136 -233 8 0
14 -5 14 -11 0 -23 18 3 24 35 4 19 12 36 19 39 8 2 7 9 -6 21 -21 22 -22 62
-1 112 23 55 7 105 -39 122 -18 7 -41 12 -50 12 -9 0 -19 11 -23 25 -9 38 -37
49 -55 22z"/>
<path d="M3020 8645 c-13 -16 -22 -58 -35 -170 -5 -42 -4 -47 6 -30 7 11 25
35 42 54 26 31 29 39 24 83 -3 26 -10 55 -15 64 -8 14 -10 14 -22 -1z"/>
<path d="M100 8378 c0 -19 2 -20 10 -8 13 19 13 30 0 30 -5 0 -10 -10 -10 -22z"/>
<path d="M11906 4901 c-4 -7 -5 -15 -2 -18 9 -9 19 4 14 18 -4 11 -6 11 -12 0z"/>
<path d="M11960 4870 c25 -8 24 -8 -5 -9 -23 -1 -27 -3 -15 -11 27 -18 59 -12
57 10 -1 16 -8 20 -32 19 -29 -1 -29 -1 -5 -9z"/>
<path d="M277 4849 c-3 -13 3 -39 15 -62 28 -55 22 -155 -10 -190 -32 -34 -31
-124 2 -164 16 -19 24 -41 24 -65 0 -20 3 -46 7 -57 8 -26 -10 -51 -36 -51
-21 0 -24 21 -8 52 6 11 8 30 5 43 -5 18 -12 23 -32 21 -33 -4 -48 -29 -46
-77 2 -33 -2 -39 -33 -53 -26 -12 -36 -25 -40 -49 -8 -46 12 -244 30 -296 15
-41 15 -46 -6 -97 -20 -48 -21 -57 -10 -111 7 -32 17 -76 21 -99 5 -23 8 -196
7 -386 l-1 -345 27 -32 c25 -31 26 -34 12 -61 -20 -40 -20 -268 0 -325 23 -63
19 -118 -10 -153 -13 -16 -35 -62 -49 -103 -14 -41 -30 -88 -37 -106 -12 -29
-11 -35 10 -57 21 -22 23 -31 16 -73 -12 -78 -14 -466 -2 -481 8 -10 19 -4 49
27 21 22 38 44 38 49 0 18 43 63 56 58 8 -3 14 5 16 22 2 21 10 28 35 33 43 9
58 22 85 76 22 44 114 133 176 169 18 10 35 29 38 41 3 12 15 30 26 40 19 17
20 17 36 -4 21 -25 54 -43 81 -43 23 0 41 22 23 28 -7 2 -12 12 -12 21 0 10
-9 26 -19 35 -16 15 -18 22 -8 36 7 13 16 16 26 10 13 -7 16 -1 16 37 0 32 5
47 18 54 9 6 36 28 60 50 64 59 83 75 100 82 9 3 25 24 36 46 12 22 34 48 51
58 16 9 33 26 36 38 6 19 25 43 112 143 34 40 55 61 104 108 11 11 72 75 136
143 64 69 124 131 132 138 8 7 66 64 128 126 62 61 123 121 134 132 12 11 28
27 35 35 8 8 209 211 447 451 392 395 434 440 446 482 7 26 17 47 21 47 5 0 9
7 9 15 0 21 -27 30 -45 15 -8 -7 -29 -10 -47 -7 -26 3 -41 -2 -69 -24 l-37
-29 -318 0 c-176 0 -533 5 -794 12 -261 6 -485 10 -497 9 -105 -11 -392 10
-425 30 -6 4 -11 27 -10 53 1 25 -2 46 -6 46 -14 0 -32 48 -32 85 0 28 -4 35
-19 35 -15 0 -20 9 -22 43 -5 57 0 89 14 84 7 -2 13 -13 15 -25 2 -12 8 -22
13 -22 5 0 9 -9 9 -20 0 -11 7 -23 15 -26 8 -4 15 -14 15 -23 1 -15 1 -15 10
0 14 24 13 69 -2 112 -10 28 -18 37 -36 37 -13 0 -20 4 -17 10 3 6 2 10 -4 10
-5 0 -12 18 -16 40 -6 37 -20 58 -31 48 -2 -3 -9 -31 -15 -64 -17 -91 -18 -92
-39 -64 -13 18 -21 50 -26 113 -6 83 -8 87 -31 87 -16 0 -27 8 -33 25 -12 31
-36 33 -43 4z"/>
<path d="M611 4664 c0 -11 3 -14 6 -6 3 7 2 16 -1 19 -3 4 -6 -2 -5 -13z"/>
<path d="M4335 4190 c-102 -8 -155 -22 -155 -39 0 -13 -140 -159 -427 -445
-128 -127 -240 -238 -248 -246 -9 -8 -244 -243 -523 -523 -510 -510 -902 -897
-1074 -1060 -158 -148 -217 -206 -225 -221 -5 -8 -69 -78 -143 -155 -74 -77
-145 -154 -158 -171 -13 -16 -29 -30 -35 -30 -7 0 -65 -53 -129 -117 -64 -65
-148 -149 -187 -187 -39 -38 -71 -72 -71 -77 0 -4 -9 -10 -20 -14 -11 -3 -29
-23 -41 -43 -12 -20 -45 -57 -74 -82 -30 -25 -56 -52 -60 -62 -9 -26 -118
-128 -136 -128 -21 0 -69 -38 -69 -54 0 -6 -12 -19 -27 -28 -43 -25 -113 -95
-113 -111 0 -8 -14 -28 -31 -45 -24 -24 -30 -37 -27 -63 3 -32 5 -34 38 -31
83 8 83 8 106 -28 35 -54 65 -90 74 -90 5 0 14 17 20 38 16 48 28 60 36 36 21
-62 65 -144 82 -153 17 -9 24 -7 41 15 12 15 21 31 21 35 0 10 72 78 97 93 11
6 23 -1 42 -25 l27 -32 22 28 c12 15 27 46 33 69 20 74 48 87 75 33 9 -17 37
-51 63 -74 50 -47 91 -56 113 -25 7 11 32 31 55 45 23 15 49 42 59 62 9 19 19
35 23 35 3 0 43 36 87 79 45 43 91 82 101 85 11 4 26 18 34 32 7 15 24 30 36
35 13 5 27 19 32 32 5 13 23 33 39 43 16 10 52 47 81 81 28 34 67 70 86 79 19
9 35 21 35 26 0 6 24 34 53 63 28 29 90 91 136 139 46 48 97 94 112 102 16 8
29 21 29 29 0 8 16 32 35 52 19 20 35 42 35 48 0 6 19 29 43 51 23 21 89 93
147 159 58 66 140 156 183 200 133 137 901 908 938 941 19 17 69 69 113 115
287 306 604 634 896 929 365 367 450 457 450 474 0 7 7 19 15 26 30 25 17 40
-32 40 -217 0 -538 6 -583 12 -30 3 -100 3 -155 -2z"/>
<path d="M4883 3374 c-216 -219 -395 -405 -398 -414 -3 -8 -18 -24 -35 -33
-16 -10 -51 -41 -77 -69 -26 -29 -102 -107 -168 -173 -66 -67 -142 -146 -170
-176 -27 -30 -65 -64 -82 -74 -18 -11 -33 -22 -33 -26 0 -4 -18 -26 -40 -49
-22 -23 -40 -45 -40 -48 0 -4 -18 -18 -40 -32 -22 -14 -40 -28 -40 -31 0 -8
-516 -534 -732 -746 -119 -118 -148 -149 -148 -161 0 -7 -4 -12 -8 -12 -5 0
-54 -44 -109 -97 -149 -145 -195 -191 -221 -216 -179 -170 -242 -231 -257
-247 -23 -26 -81 -70 -91 -70 -6 0 -22 -21 -35 -46 -13 -26 -35 -54 -49 -62
-14 -9 -29 -23 -34 -30 -4 -8 -28 -34 -52 -59 -24 -24 -44 -52 -44 -62 0 -10
-9 -21 -21 -24 -16 -4 -20 -12 -17 -34 2 -19 8 -27 18 -24 35 8 83 0 110 -19
38 -27 47 -25 65 10 9 17 21 30 29 30 18 0 74 -64 90 -102 15 -34 85 -68 143
-68 26 0 36 -6 48 -30 10 -20 23 -30 39 -30 12 0 31 -9 41 -20 10 -11 26 -20
36 -20 27 0 59 69 59 129 0 27 4 52 8 55 5 3 19 -8 31 -24 17 -24 29 -30 61
-30 31 0 40 -4 46 -22 12 -40 22 -47 53 -35 38 14 79 2 112 -34 18 -19 30 -26
34 -18 4 6 25 18 46 27 25 11 51 35 76 71 21 30 44 56 51 59 11 3 23 -19 46
-82 6 -18 9 -17 36 9 16 16 32 37 36 47 8 25 18 23 56 -12 37 -35 49 -36 89
-13 27 16 29 16 49 -2 22 -20 22 -20 42 7 l19 28 29 -22 c21 -15 36 -19 57
-14 15 4 39 8 53 9 25 2 45 30 55 80 7 33 21 34 52 5 15 -14 34 -21 53 -20 24
2 31 -2 36 -22 3 -14 12 -30 19 -36 11 -9 17 -4 31 22 9 18 23 41 31 50 8 9
23 31 32 50 37 68 90 44 152 -68 l42 -76 40 4 c37 3 42 1 60 -29 10 -18 25
-33 33 -33 15 0 42 25 60 56 11 19 12 19 47 1 l34 -19 52 37 c30 22 53 47 56
61 3 13 7 35 10 49 7 35 26 31 54 -10 20 -29 30 -35 60 -35 43 0 53 -6 68 -42
10 -21 20 -28 42 -28 41 0 100 27 144 66 32 29 41 33 58 24 11 -6 33 -9 48 -5
23 5 29 1 39 -20 17 -36 30 -31 39 17 10 52 27 59 43 16 l12 -33 17 52 c9 28
19 55 23 59 4 3 26 -1 48 -10 40 -16 41 -16 64 7 l24 24 7 389 c4 214 5 589 1
834 -3 245 -8 679 -12 965 -4 445 -11 971 -13 1096 -2 81 -13 72 -428 -347z"/>
<path d="M2210 2895 c-13 -34 -5 -78 13 -72 15 5 22 76 8 90 -7 7 -14 1 -21
-18z"/>
<path d="M11768 2212 c-28 -2 -39 -9 -44 -25 -12 -33 -5 -60 21 -84 29 -28 27
-27 53 -5 20 18 28 56 20 94 -5 23 -7 24 -50 20z"/>
<path d="M800 1930 c0 -5 -7 -10 -15 -10 -10 0 -15 -10 -15 -30 0 -50 45 -36
55 18 4 24 2 32 -10 32 -8 0 -15 -4 -15 -10z"/>
<path d="M11997 1903 c14 -38 43 -43 43 -8 0 20 -5 25 -25 25 -19 0 -23 -4
-18 -17z"/>
<path d="M1010 1854 c-7 -19 -7 -31 1 -40 20 -24 29 -15 29 26 0 46 -16 53
-30 14z"/>
<path d="M602 1848 c-17 -17 -16 -118 1 -118 13 0 37 72 37 110 0 22 -20 26
-38 8z"/>
<path d="M720 1829 c0 -5 5 -7 10 -4 6 3 10 8 10 11 0 2 -4 4 -10 4 -5 0 -10
-5 -10 -11z"/>
<path d="M244 1484 c-9 -35 1 -115 15 -124 7 -4 14 -29 16 -56 7 -73 15 -106
35 -141 13 -22 16 -40 11 -59 -9 -35 -34 -46 -30 -13 7 62 -32 93 -52 42 -18
-45 7 -173 34 -173 12 0 8 -147 -5 -175 -16 -36 -28 -31 -28 11 0 23 -6 41
-17 50 -13 9 -19 29 -21 71 -8 166 -15 224 -26 220 -11 -4 -12 -35 -6 -187 1
-41 2 -88 1 -105 0 -16 6 -35 14 -41 10 -8 15 -30 15 -69 0 -57 31 -149 38
-113 2 10 12 18 22 18 13 0 20 10 25 36 4 22 2 39 -4 43 -6 4 -7 18 -4 31 l7
25 6 -25 c4 -18 13 -26 35 -28 33 -4 75 15 75 35 0 26 49 13 83 -22 l35 -36 7
28 c5 15 9 33 10 38 1 6 -1 55 -6 110 -8 103 -23 146 -79 224 -12 17 -17 31
-11 31 19 0 12 39 -9 52 -11 7 -20 17 -20 22 0 5 -7 17 -15 26 -26 29 -72 129
-61 133 14 5 -11 37 -29 37 -6 0 -18 25 -25 55 -14 60 -26 69 -36 29z m169
-371 c11 -7 -13 -33 -29 -33 -8 0 -14 10 -14 25 0 24 10 25 43 8z m-43 -222
c0 -11 2 -25 5 -33 2 -7 -4 -24 -15 -38 -17 -21 -21 -23 -30 -10 -9 13 -4 73
7 93 9 15 33 6 33 -12z"/>
<path d="M162 1387 c-12 -14 -16 -58 -14 -129 2 -40 5 -46 20 -41 9 3 26 14
38 25 11 10 24 15 27 11 4 -3 7 1 7 10 0 10 -8 17 -20 17 -15 0 -20 7 -20 29
0 40 -11 91 -20 91 -4 0 -12 -6 -18 -13z"/>
<path d="M165 1190 c3 -5 10 -10 16 -10 5 0 9 5 9 10 0 6 -7 10 -16 10 -8 0
-12 -4 -9 -10z"/>
<path d="M154 808 c3 -10 1 -18 -4 -18 -6 0 -10 -6 -10 -14 0 -7 -9 -25 -20
-39 -16 -20 -20 -40 -20 -99 0 -40 5 -80 10 -88 8 -12 10 -11 10 8 0 12 4 22
9 22 15 0 23 31 31 125 5 55 4 96 -2 105 -8 12 -9 12 -4 -2z"/>
<path d="M300 650 c0 -5 5 -10 10 -10 6 0 10 5 10 10 0 6 -4 10 -10 10 -5 0
-10 -4 -10 -10z"/>
<path d="M286 612 c-6 -10 2 -120 10 -134 3 -5 11 -2 19 9 15 22 25 73 14 73
-4 0 -9 12 -11 27 -3 27 -22 42 -32 25z"/>
<path d="M12066 464 c-18 -17 -17 -35 1 -41 6 -2 13 9 16 24 7 35 4 38 -17 17z"/>
<path d="M11935 390 c-7 -12 40 -25 55 -15 9 6 9 10 -1 16 -19 12 -46 11 -54
-1z"/>
<path d="M12136 295 c-3 -8 -1 -15 4 -15 6 0 10 7 10 15 0 8 -2 15 -4 15 -2 0
-6 -7 -10 -15z"/>
</g>
</svg>
